<svg width="79" height="71" xmlns="http://www.w3.org/2000/svg" xmlns:xlink="http://www.w3.org/1999/xlink" xmlns:svgjs="http://svgjs.com/svgjs" viewBox="230 64 79 71"><svg width="7" height="53" xmlns="http://www.w3.org/2000/svg" xmlns:xlink="http://www.w3.org/1999/xlink" xmlns:svgjs="http://svgjs.com/svgjs" viewBox="0.227 0 6.546 53" fill="#1e1744" opacity=".2" x="230" y="82"><svg xmlns="http://www.w3.org/2000/svg" xmlns:xlink="http://www.w3.org/1999/xlink" width="7" height="53" viewBox="0.248 0.711 6.346 51.38"><path paint-order="stroke fill markers" fill-rule="evenodd" d="M.248 52.091H6.595v-27.69V2.11L.247.71V52.091z"/></svg></svg><svg width="9" height="58" xmlns="http://www.w3.org/2000/svg" xmlns:xlink="http://www.w3.org/1999/xlink" xmlns:svgjs="http://svgjs.com/svgjs" viewBox="0.511 0 7.978 58" fill="#1e1744" opacity=".502" x="238" y="77"><svg xmlns="http://www.w3.org/2000/svg" xmlns:xlink="http://www.w3.org/1999/xlink" width="9" height="58" viewBox="0.775 0.308 7.811 56.783"><path paint-order="stroke fill markers" fill-rule="evenodd" d="M.775 57.091h7.811V26.237 2.28L.776.308v56.783z"/></svg></svg><svg width="11" height="65" xmlns="http://www.w3.org/2000/svg" xmlns:xlink="http://www.w3.org/1999/xlink" xmlns:svgjs="http://svgjs.com/svgjs" viewBox="0.458 0 10.085 65" fill="#1e1744" x="249" y="70"><svg xmlns="http://www.w3.org/2000/svg" xmlns:xlink="http://www.w3.org/1999/xlink" width="11" height="65" viewBox="0.299 0.637 9.845 63.454"><path paint-order="stroke fill markers" fill-rule="evenodd" d="M.3 64.09h9.845V29.257 3.552L.298.637V64.09z"/></svg></svg><svg width="47" height="71" xmlns="http://www.w3.org/2000/svg" xmlns:xlink="http://www.w3.org/1999/xlink" xmlns:svgjs="http://svgjs.com/svgjs" viewBox="0 0.123 47 70.754" fill="#ee1414" x="262" y="64"><svg xmlns="http://www.w3.org/2000/svg" width="47" height="71" viewBox="0.666 0.395 46.297 69.696"><path paint-order="stroke fill markers" fill-rule="evenodd" d="M46.963 16.455c-1.949-.68-3.949-1.372-6.004-2.085L26.833 9.472C21.56 7.644 15.953 5.697 9.986 3.626 6.977 2.583 3.88 1.506.666.395V70.09h46.297v-8.7-18.108V25.17v-8.716zM9.986 59.31V36.872 14.426c5.967 1.735 11.574 3.364 16.852 4.896 4.971 1.444 9.676 2.81 14.121 4.103V61.052A166400.866 166400.866 0 0 1 9.986 59.31z"/></svg></svg></svg>