<svg width="17" height="16" xmlns="http://www.w3.org/2000/svg" xmlns:xlink="http://www.w3.org/1999/xlink" xmlns:svgjs="http://svgjs.com/svgjs" viewBox="0.499 0 16.002 16"  ><svg xmlns="http://www.w3.org/2000/svg" width="17" height="16" viewBox="0.896 0 15.188 15.185"><path paint-order="stroke fill markers" fill-rule="evenodd" d="M15.92 11.516c-.565-1.068-2.528-2.227-2.614-2.278a1.56 1.56 0 0 0-.762-.22.948.948 0 0 0-.848.474c-.287.343-.643.745-.73.807-.669.454-1.192.402-1.772-.177L5.96 6.888c-.575-.576-.628-1.106-.178-1.772.064-.087.465-.443.808-.73a.937.937 0 0 0 .436-.562c.087-.316.023-.688-.184-1.05C6.793 2.69 5.634.725 4.566.16a1.392 1.392 0 0 0-1.632.246l-.715.714C1.09 2.251.68 3.531 1.003 4.928c.269 1.163 1.053 2.401 2.332 3.679l4.14 4.14c1.618 1.618 3.16 2.438 4.584 2.438 1.048 0 2.024-.445 2.902-1.322l.714-.715c.434-.434.533-1.09.246-1.632z"/></svg></svg>
