<svg width="13" height="17" xmlns="http://www.w3.org/2000/svg" xmlns:xlink="http://www.w3.org/1999/xlink" xmlns:svgjs="http://svgjs.com/svgjs" viewBox="0.343 0 12.314 17" ><svg xmlns="http://www.w3.org/2000/svg" width="13" height="17" viewBox="0 0 12.01 16.581"><path paint-order="stroke fill markers" fill-rule="evenodd" d="M6.005 0A6.012 6.012 0 0 0 0 6.005c0 4.11 5.374 10.142 5.603 10.397a.54.54 0 0 0 .804 0c.23-.255 5.603-6.288 5.603-10.397A6.012 6.012 0 0 0 6.005 0zm0 9.026a3.025 3.025 0 0 1-3.021-3.02 3.025 3.025 0 0 1 3.021-3.022 3.025 3.025 0 0 1 3.021 3.021 3.025 3.025 0 0 1-3.02 3.021z"/></svg></svg>
