<?xml version="1.0" encoding="UTF-8" standalone="no"?>
<!-- Generator: Adobe Illustrator 15.1.0, SVG Export Plug-In . SVG Version: 6.00 Build 0)  -->

<svg
   xmlns:dc="http://purl.org/dc/elements/1.1/"
   xmlns:cc="http://creativecommons.org/ns#"
   xmlns:rdf="http://www.w3.org/1999/02/22-rdf-syntax-ns#"
   xmlns:svg="http://www.w3.org/2000/svg"
   xmlns="http://www.w3.org/2000/svg"
   xmlns:sodipodi="http://sodipodi.sourceforge.net/DTD/sodipodi-0.dtd"
   xmlns:inkscape="http://www.inkscape.org/namespaces/inkscape"
   version="1.1"
   id="Layer_1"
   x="0px"
   y="0px"
   width="203.61"
   height="52.702"
   viewBox="0 0 203.60999 52.701999"
   enable-background="new 0 0 595.28 841.89"
   xml:space="preserve"
   inkscape:version="0.48.2 r9819"
   sodipodi:docname="Rossiya-1_Logo.svg"><metadata
   id="metadata3069"><rdf:RDF><cc:Work
       rdf:about=""><dc:format>image/svg+xml</dc:format><dc:type
         rdf:resource="http://purl.org/dc/dcmitype/StillImage" /></cc:Work></rdf:RDF></metadata><defs
   id="defs3067" /><sodipodi:namedview
   pagecolor="#ffffff"
   bordercolor="#666666"
   borderopacity="1"
   objecttolerance="10"
   gridtolerance="10"
   guidetolerance="10"
   inkscape:pageopacity="0"
   inkscape:pageshadow="2"
   inkscape:window-width="1280"
   inkscape:window-height="962"
   id="namedview3065"
   showgrid="false"
   fit-margin-top="4"
   fit-margin-left="4"
   fit-margin-right="4"
   fit-margin-bottom="4"
   inkscape:zoom="1.4697613"
   inkscape:cx="61.78225"
   inkscape:cy="22.514183"
   inkscape:window-x="-8"
   inkscape:window-y="-8"
   inkscape:window-maximized="1"
   inkscape:current-layer="Layer_1" />
<g
   id="g3029"
   transform="translate(-195.83501,-216.746)">
	<linearGradient
   id="SVGID_1_"
   gradientUnits="userSpaceOnUse"
   x1="372.72269"
   y1="221.81841"
   x2="372.72269"
   y2="264.52811">
		<stop
   offset="0"
   style="stop-color:#E41E26"
   id="stop3032" />
		<stop
   offset="1"
   style="stop-color:#BC2025"
   id="stop3034" />
	</linearGradient>
	<rect
   x="350"
   y="220.746"
   width="45.445"
   height="44.702"
   id="rect3036"
   style="fill:url(#SVGID_1_)" />
	<polygon
   points="377.973,233.762 377.973,224.732 361.119,233.14 361.119,242.17 "
   id="polygon3038"
   style="fill:#ffffff" />
	<polygon
   points="377.973,235.65 369.564,239.847 369.564,260.387 377.973,260.387 "
   id="polygon3040"
   style="fill:#ffffff" />
	<linearGradient
   id="SVGID_2_"
   gradientUnits="userSpaceOnUse"
   x1="273.12939"
   y1="196.7339"
   x2="273.12939"
   y2="290.78159">
		<stop
   offset="0"
   style="stop-color:#5481C1"
   id="stop3043" />
		<stop
   offset="0.1863"
   style="stop-color:#4C75B8"
   id="stop3045" />
		<stop
   offset="0.5473"
   style="stop-color:#375CA5"
   id="stop3047" />
		<stop
   offset="1"
   style="stop-color:#1E398D"
   id="stop3049" />
	</linearGradient>
	<rect
   x="199.83501"
   y="220.746"
   width="146.589"
   height="44.645"
   id="rect3051"
   style="fill:url(#SVGID_2_)" />
	
	
	
	
	
	
</g>
<g
   style="font-size:36px;font-style:normal;font-weight:normal;line-height:125%;letter-spacing:-0.03000000000000000px;word-spacing:0px;fill:#ffffff;fill-opacity:1;stroke:none;font-family:Sans"
   id="text3008"><path
     d="m 18.18685,38.24387 0,-23.659821 8.434906,0 c 2.309964,2.4e-5 4.182368,0.740761 5.617218,2.222214 1.434816,1.481496 2.152233,3.260618 2.152252,5.337372 -1.9e-5,2.076786 -0.711561,3.838462 -2.134628,5.285034 -1.423101,1.446593 -3.30138,2.169885 -5.634842,2.169876 l -3.289795,0 0,8.645325 z m 5.145111,-12.914582 3.114624,0 c 0.81674,1.3e-5 1.475945,-0.29176 1.977615,-0.87532 0.501645,-0.583533 0.752474,-1.353643 0.752487,-2.310333 -1.3e-5,-0.956658 -0.250842,-1.726591 -0.752487,-2.309799 -0.50167,-0.583172 -1.160875,-0.874767 -1.977615,-0.874787 l -3.114624,0 z"
     style="font-size:35px;font-variant:normal;font-weight:bold;font-stretch:normal;letter-spacing:-0.32999998000000003px;font-family:Russia;-inkscape-font-specification:Russia Bold;fill:#ffffff"
     id="path3026" /><path
     d="m 36.812691,28.934177 0,-5.005188 c -2e-6,-3.126711 0.880836,-5.541718 2.642517,-7.245025 1.761672,-1.703265 3.99581,-2.554908 6.702423,-2.554932 2.730089,2.4e-5 4.975977,0.851667 6.737671,2.554932 1.761658,1.703307 2.642496,4.118314 2.642517,7.245025 l 0,5.005188 c -2.1e-5,3.149522 -0.880859,5.56435 -2.642517,7.244492 -1.761694,1.680146 -4.007582,2.520217 -6.737671,2.520218 -2.706613,-10e-7 -4.940751,-0.845769 -6.702423,-2.537308 -1.761681,-1.691535 -2.642519,-4.100666 -2.642517,-7.227402 z m 9.34494,5.38971 c 2.82337,4e-6 4.235061,-1.925094 4.235077,-5.775299 l 0,-4.269257 c -1.6e-5,-3.850181 -1.411707,-5.775279 -4.235077,-5.775299 -2.799895,2e-5 -4.199836,1.925118 -4.199829,5.775299 l 0,4.269257 c -7e-6,3.850205 1.399934,5.775303 4.199829,5.775299 z"
     style="font-size:35px;font-variant:normal;font-weight:bold;font-stretch:normal;letter-spacing:-0.32999998000000003px;font-family:Russia;-inkscape-font-specification:Russia Bold;fill:#ffffff"
     id="path3028" /><path
     d="m 74.409327,33.378605 0.979461,4.235077 c -2.239497,0.72347 -4.514225,1.085204 -6.824188,1.085205 -2.893889,-10e-7 -5.227362,-0.834198 -7.000427,-2.502594 -1.773074,-1.668392 -2.659609,-4.077702 -2.659607,-7.227936 l 0,-5.109863 c -2e-6,-3.149498 0.886533,-5.558452 2.659607,-7.226868 1.773065,-1.668373 4.106538,-2.50257 7.000427,-2.502594 2.309963,2.4e-5 4.584691,0.361759 6.824188,1.085205 l -0.979461,4.199829 c -1.960363,-0.60667 -3.89721,-0.910014 -5.810547,-0.910034 -3.032744,2e-5 -4.54911,1.925118 -4.549103,5.775299 l 0,4.234009 c -7e-6,2.053637 0.390745,3.535468 1.172256,4.445496 0.781496,0.910038 1.90711,1.365055 3.376847,1.365051 2.053616,4e-6 3.990463,-0.31509 5.810547,-0.945282 z"
     style="font-size:35px;font-variant:normal;font-weight:bold;font-stretch:normal;letter-spacing:-0.32999998000000003px;font-family:Russia;-inkscape-font-specification:Russia Bold;fill:#ffffff"
     id="path3030" /><path
     d="m 93.971903,33.378605 0.979462,4.235077 c -2.239498,0.72347 -4.514225,1.085204 -6.824189,1.085205 -2.893889,-10e-7 -5.227362,-0.834198 -7.000427,-2.502594 -1.773074,-1.668392 -2.659609,-4.077702 -2.659607,-7.227936 l 0,-5.109863 c -2e-6,-3.149498 0.886533,-5.558452 2.659607,-7.226868 1.773065,-1.668373 4.106538,-2.50257 7.000427,-2.502594 2.309964,2.4e-5 4.584691,0.361759 6.824189,1.085205 l -0.979462,4.199829 c -1.960363,-0.60667 -3.89721,-0.910014 -5.810547,-0.910034 -3.032744,2e-5 -4.54911,1.925118 -4.549103,5.775299 l 0,4.234009 c -7e-6,2.053637 0.390745,3.535468 1.172257,4.445496 0.781495,0.910038 1.907109,1.365055 3.376846,1.365051 2.053616,4e-6 3.990463,-0.31509 5.810547,-0.945282 z"
     style="font-size:35px;font-variant:normal;font-weight:bold;font-stretch:normal;letter-spacing:-0.32999998000000003px;font-family:Russia;-inkscape-font-specification:Russia Bold;fill:#ffffff"
     id="path3032" /><path
     d="m 116.54443,14.584049 0,23.659821 -5.14511,0 0,-10.079804 c -1e-5,-1.260364 0.0466,-2.497241 0.13992,-3.710632 l -8.71475,13.790436 -4.199828,0 0,-23.659821 5.145108,0 0,10.254975 c 0,1.073112 -0.0352,2.27474 -0.10574,3.604889 l 8.71582,-13.859864 z"
     style="font-size:35px;font-variant:normal;font-weight:bold;font-stretch:normal;letter-spacing:-0.32999998000000003px;font-family:Russia;-inkscape-font-specification:Russia Bold;fill:#ffffff"
     id="path3034" /><path
     d="m 136.35161,14.584049 0,23.659821 -5.14511,0 0,-8.645325 -1.96,0 -3.78006,8.645325 -5.74005,0 4.41025,-9.380188 c -1.30666,-0.583181 -2.32173,-1.481465 -3.0452,-2.694855 -0.72347,-1.213366 -1.0852,-2.554917 -1.0852,-4.024658 0,-2.07711 0.71759,-3.85641 2.15279,-5.337906 1.43518,-1.481453 3.30776,-2.22219 5.61775,-2.222214 z m -8.33023,10.745239 3.18512,0 0,-6.370239 -3.18512,0 c -0.81676,2e-5 -1.49342,0.297489 -2.02996,0.892411 -0.53655,0.594957 -0.80483,1.359193 -0.80482,2.292709 -1e-5,0.956334 0.26239,1.726266 0.7872,2.309799 0.52479,0.58356 1.20732,0.875333 2.04758,0.87532 z"
     style="font-size:35px;font-variant:normal;font-weight:bold;font-stretch:normal;letter-spacing:-0.32999998000000003px;font-family:Russia;-inkscape-font-specification:Russia Bold;fill:#ffffff"
     id="path3036" /></g></svg>